<svg width="278" height="114" viewBox="0 0 278 114" fill="none" xmlns="http://www.w3.org/2000/svg">
<path d="M38.9998 114C31.2998 114 24.4998 112.3 18.5998 108.9C12.7998 105.5 8.24981 100.8 4.9498 94.8C1.6498 88.8 -0.000195339 81.9 -0.000195339 74.1C-0.000195339 66.2 1.5998 59.3 4.79981 53.4C8.09981 47.4 12.6998 42.75 18.5998 39.45C24.4998 36.15 31.2498 34.5 38.8498 34.5C46.2498 34.5 52.6498 36.1 58.0498 39.3C63.5498 42.4 67.7498 46.75 70.6498 52.35C73.6498 57.95 75.1498 64.6 75.1498 72.3C75.1498 73.5 75.0998 74.65 74.9998 75.75C74.9998 76.75 74.8998 77.8 74.6998 78.9H10.4998V67.2H63.7498L59.8498 71.85C59.8498 63.65 57.9998 57.4 54.2998 53.1C50.5998 48.8 45.4498 46.65 38.8498 46.65C31.7498 46.65 26.0998 49.1 21.8998 54C17.7998 58.8 15.7498 65.5 15.7498 74.1C15.7498 82.8 17.7998 89.6 21.8998 94.5C26.0998 99.4 31.8998 101.85 39.2998 101.85C43.7998 101.85 47.6998 100.95 50.9998 99.15C54.2998 97.25 56.7498 94.5 58.3498 90.9H73.0498C70.5498 98.1 66.2998 103.75 60.2998 107.85C54.3998 111.95 47.2998 114 38.9998 114ZM91.1072 112.5V2.54999H106.707V112.5H91.1072ZM140.757 112.5L103.107 72.75L139.557 36H159.207L117.807 76.2L118.557 69.15L160.707 112.5H140.757ZM211.542 112.5V84L212.442 81V19.35L219.942 22.65L175.542 82.2L166.992 75.15H243.192V90.6H158.592V75.75L212.142 4.5H231.492V112.5H211.542ZM258.227 30.45V37.5H270.077V38.7H258.227V112.5H247.727V38.7H244.577V37.5H247.727V30.45C247.727 19.55 250.077 11.8 254.777 7.2C259.477 2.5 267.077 0.0999957 277.577 -8.9407e-06V1.19999C270.677 1.29999 265.727 3.64999 262.727 8.24999C259.727 12.75 258.227 20.15 258.227 30.45Z" fill="white"/>
</svg>
