<svg width="259" height="111" viewBox="0 0 259 111" fill="none" xmlns="http://www.w3.org/2000/svg">
<path d="M51.9001 109.5C51.4001 107.6 51.0501 105.5 50.8501 103.2C50.7501 100.9 50.7001 98.1 50.7001 94.8H49.9501V58.35C49.9501 53.45 48.7001 49.8 46.2001 47.4C43.8001 44.9 39.9501 43.65 34.6501 43.65C29.5501 43.65 25.45 44.65 22.35 46.65C19.35 48.65 17.6 51.5 17.1 55.2H2.25005C2.95005 48 6.20005 42.25 12 37.95C17.8 33.65 25.5501 31.5 35.2501 31.5C45.2501 31.5 52.7501 33.85 57.7501 38.55C62.7501 43.15 65.2501 49.95 65.2501 58.95V94.8C65.2501 97.1 65.4001 99.45 65.7001 101.85C66.0001 104.25 66.4501 106.8 67.0501 109.5H51.9001ZM25.5001 111C17.7001 111 11.5 109.1 6.90005 105.3C2.30005 101.4 4.90472e-05 96.15 4.90472e-05 89.55C4.90472e-05 82.75 2.40005 77.4 7.20005 73.5C12.1 69.5 19.1 66.8 28.2 65.4L53.4001 61.35V72.3L30.6001 75.9C25.5001 76.7 21.65 78.05 19.05 79.95C16.55 81.85 15.3001 84.6 15.3001 88.2C15.3001 91.7 16.4501 94.35 18.7501 96.15C21.15 97.85 24.6 98.7 29.1001 98.7C35.1001 98.7 40.0501 97.25 43.9501 94.35C47.9501 91.45 49.9501 87.8 49.9501 83.4L51.9001 94.5C50.1001 99.8 46.9001 103.9 42.3001 106.8C37.7001 109.6 32.1001 111 25.5001 111ZM82.2516 109.5V24.15C82.2516 16.35 84.4516 10.4 88.8516 6.3C93.2516 2.1 99.8516 -2.86102e-06 108.652 -2.86102e-06C110.652 -2.86102e-06 112.302 0.0999959 113.602 0.299993C114.902 0.499997 116.052 0.799996 117.052 1.19999V13.2C116.352 13 115.402 12.8 114.202 12.6C113.102 12.4 111.852 12.3 110.452 12.3C106.052 12.3 102.852 13.4 100.852 15.6C98.8516 17.7 97.8516 20.7 97.8516 24.6V109.5H82.2516ZM67.5516 45.45V33H115.402V45.45H67.5516ZM148.497 111C138.497 111 130.547 108.8 124.647 104.4C118.747 100 115.397 93.8 114.597 85.8H128.997C129.697 90.2 131.697 93.6 134.997 96C138.397 98.3 142.997 99.45 148.797 99.45C153.897 99.45 157.797 98.55 160.497 96.75C163.197 94.95 164.547 92.4 164.547 89.1C164.547 86.7 163.747 84.7 162.147 83.1C160.647 81.4 157.647 80 153.147 78.9L140.847 76.05C133.147 74.15 127.397 71.35 123.597 67.65C119.897 63.85 118.047 59.2 118.047 53.7C118.047 46.8 120.597 41.4 125.697 37.5C130.897 33.5 137.997 31.5 146.997 31.5C155.897 31.5 163.047 33.5 168.447 37.5C173.947 41.5 177.047 47.1 177.747 54.3H163.347C162.747 50.7 160.997 47.95 158.097 46.05C155.297 44.05 151.447 43.05 146.547 43.05C141.947 43.05 138.397 43.9 135.897 45.6C133.497 47.2 132.297 49.45 132.297 52.35C132.297 54.75 133.197 56.75 134.997 58.35C136.897 59.95 139.997 61.3 144.297 62.4L156.897 65.55C164.197 67.35 169.697 70.3 173.397 74.4C177.097 78.4 178.947 83.25 178.947 88.95C178.947 95.85 176.247 101.25 170.847 105.15C165.547 109.05 158.097 111 148.497 111ZM243.89 109.5V91.95L245.39 92.4C243.79 98.1 240.49 102.65 235.49 106.05C230.49 109.35 224.49 111 217.49 111C210.59 111 204.54 109.35 199.34 106.05C194.24 102.75 190.24 98.15 187.34 92.25C184.54 86.35 183.14 79.45 183.14 71.55C183.14 63.55 184.59 56.55 187.49 50.55C190.39 44.55 194.44 39.9 199.64 36.6C204.84 33.3 210.94 31.65 217.94 31.65C225.24 31.65 231.24 33.4 235.94 36.9C240.74 40.3 243.89 45.1 245.39 51.3L243.29 51.6V1.5H258.74V109.5H243.89ZM221.39 97.95C228.29 97.95 233.74 95.6 237.74 90.9C241.74 86.1 243.74 79.5 243.74 71.1C243.74 62.9 241.69 56.45 237.59 51.75C233.59 46.95 228.14 44.55 221.24 44.55C214.44 44.55 209.04 46.95 205.04 51.75C201.14 56.45 199.19 63.05 199.19 71.55C199.19 79.85 201.14 86.35 205.04 91.05C209.04 95.65 214.49 97.95 221.39 97.95Z" fill="white"/>
</svg>
