<svg width="275" height="112" viewBox="0 0 275 112" fill="none" xmlns="http://www.w3.org/2000/svg">
<path d="M39.0001 111.449C31.3001 111.449 24.5 109.749 18.6 106.349C12.8 102.949 8.25005 98.2492 4.95005 92.2492C1.65005 86.2492 4.88013e-05 79.3492 4.88013e-05 71.5492C4.88013e-05 63.6492 1.60005 56.7492 4.80005 50.8492C8.10005 44.8492 12.7 40.1992 18.6 36.8992C24.5 33.5992 31.2501 31.9492 38.8501 31.9492C46.2501 31.9492 52.6501 33.5492 58.0501 36.7492C63.5501 39.8492 67.7501 44.1992 70.6501 49.7992C73.6501 55.3992 75.1501 62.0492 75.1501 69.7492C75.1501 70.9492 75.1001 72.0992 75.0001 73.1992C75.0001 74.1992 74.9001 75.2492 74.7001 76.3492H10.5V64.6492H63.7501L59.8501 69.2992C59.8501 61.0992 58.0001 54.8492 54.3001 50.5492C50.6001 46.2492 45.4501 44.0992 38.8501 44.0992C31.7501 44.0992 26.1001 46.5492 21.9 51.4492C17.8001 56.2492 15.7501 62.9492 15.7501 71.5492C15.7501 80.2492 17.8001 87.0492 21.9 91.9492C26.1001 96.8492 31.9001 99.2992 39.3001 99.2992C43.8001 99.2992 47.7001 98.3992 51.0001 96.5992C54.3001 94.6992 56.7501 91.9492 58.3501 88.3492H73.0501C70.5501 95.5492 66.3001 101.199 60.3001 105.299C54.4001 109.399 47.3001 111.449 39.0001 111.449ZM83.6075 109.949V-0.000787258H99.2075V109.949H83.6075ZM133.257 109.949L95.6075 70.1992L132.057 33.4492H151.707L110.307 73.6492L111.057 66.5992L153.207 109.949H133.257ZM196.446 109.949V81.4492L197.046 78.4492V16.7992L202.746 18.4492L157.746 79.3492L151.596 73.4992H225.696V86.5492H143.196V74.3992L197.046 1.94921H212.796V109.949H196.446ZM239.259 109.949V24.5992C239.259 16.7992 241.459 10.8492 245.859 6.74922C250.259 2.54922 256.859 0.449216 265.659 0.449216C267.659 0.449216 269.309 0.549215 270.609 0.749212C271.909 0.949215 273.059 1.24921 274.059 1.64921V13.6492C273.359 13.4492 272.409 13.2492 271.209 13.0492C270.109 12.8492 268.859 12.7492 267.459 12.7492C263.059 12.7492 259.859 13.8492 257.859 16.0492C255.859 18.1492 254.859 21.1492 254.859 25.0492V109.949H239.259ZM224.559 45.8992V33.4492H272.409V45.8992H224.559Z" fill="white"/>
</svg>
