<svg width="889" height="183" viewBox="0 0 889 183" fill="none" xmlns="http://www.w3.org/2000/svg">
<path d="M58.35 146C57.85 144.1 57.5 142 57.3 139.7C57.2 137.4 57.15 134.6 57.15 131.3H56.4V94.85C56.4 89.95 55.15 86.3 52.65 83.9C50.25 81.4 46.4 80.15 41.1 80.15C36 80.15 31.9 81.15 28.8 83.15C25.8 85.15 24.05 88 23.55 91.7H8.7C9.4 84.5 12.65 78.75 18.45 74.45C24.25 70.15 32 68 41.7 68C51.7 68 59.2 70.35 64.2 75.05C69.2 79.65 71.7 86.45 71.7 95.45V131.3C71.7 133.6 71.85 135.95 72.15 138.35C72.45 140.75 72.9 143.3 73.5 146H58.35ZM31.95 147.5C24.15 147.5 17.95 145.6 13.35 141.8C8.75 137.9 6.45 132.65 6.45 126.05C6.45 119.25 8.85 113.9 13.65 110C18.55 106 25.55 103.3 34.65 101.9L59.85 97.85V108.8L37.05 112.4C31.95 113.2 28.1 114.55 25.5 116.45C23 118.35 21.75 121.1 21.75 124.7C21.75 128.2 22.9 130.85 25.2 132.65C27.6 134.35 31.05 135.2 35.55 135.2C41.55 135.2 46.5 133.75 50.4 130.85C54.4 127.95 56.4 124.3 56.4 119.9L58.35 131C56.55 136.3 53.35 140.4 48.75 143.3C44.15 146.1 38.55 147.5 31.95 147.5ZM88.7016 146V60.65C88.7016 52.85 90.9016 46.9 95.3016 42.8C99.7016 38.6 106.302 36.5 115.102 36.5C117.102 36.5 118.752 36.6 120.052 36.8C121.352 37 122.502 37.3 123.502 37.7V49.7C122.802 49.5 121.852 49.3 120.652 49.1C119.552 48.9 118.302 48.8 116.902 48.8C112.502 48.8 109.302 49.9 107.302 52.1C105.302 54.2 104.302 57.2 104.302 61.1V146H88.7016ZM74.0016 81.95V69.5H121.852V81.95H74.0016ZM154.946 147.5C144.946 147.5 136.996 145.3 131.096 140.9C125.196 136.5 121.846 130.3 121.046 122.3H135.446C136.146 126.7 138.146 130.1 141.446 132.5C144.846 134.8 149.446 135.95 155.246 135.95C160.346 135.95 164.246 135.05 166.946 133.25C169.646 131.45 170.996 128.9 170.996 125.6C170.996 123.2 170.196 121.2 168.596 119.6C167.096 117.9 164.096 116.5 159.596 115.4L147.296 112.55C139.596 110.65 133.846 107.85 130.046 104.15C126.346 100.35 124.496 95.7 124.496 90.2C124.496 83.3 127.046 77.9 132.146 74C137.346 70 144.446 68 153.446 68C162.346 68 169.496 70 174.896 74C180.396 78 183.496 83.6 184.196 90.8H169.796C169.196 87.2 167.446 84.45 164.546 82.55C161.746 80.55 157.896 79.55 152.996 79.55C148.396 79.55 144.846 80.4 142.346 82.1C139.946 83.7 138.746 85.95 138.746 88.85C138.746 91.25 139.646 93.25 141.446 94.85C143.346 96.45 146.446 97.8 150.746 98.9L163.346 102.05C170.646 103.85 176.146 106.8 179.846 110.9C183.546 114.9 185.396 119.75 185.396 125.45C185.396 132.35 182.696 137.75 177.296 141.65C171.996 145.55 164.546 147.5 154.946 147.5ZM250.339 146V128.45L251.839 128.9C250.239 134.6 246.939 139.15 241.939 142.55C236.939 145.85 230.939 147.5 223.939 147.5C217.039 147.5 210.989 145.85 205.789 142.55C200.689 139.25 196.689 134.65 193.789 128.75C190.989 122.85 189.589 115.95 189.589 108.05C189.589 100.05 191.039 93.05 193.939 87.05C196.839 81.05 200.889 76.4 206.089 73.1C211.289 69.8 217.389 68.15 224.389 68.15C231.689 68.15 237.689 69.9 242.389 73.4C247.189 76.8 250.339 81.6 251.839 87.8L249.739 88.1V38H265.189V146H250.339ZM227.839 134.45C234.739 134.45 240.189 132.1 244.189 127.4C248.189 122.6 250.189 116 250.189 107.6C250.189 99.4 248.139 92.95 244.039 88.25C240.039 83.45 234.589 81.05 227.689 81.05C220.889 81.05 215.489 83.45 211.489 88.25C207.589 92.95 205.639 99.55 205.639 108.05C205.639 116.35 207.589 122.85 211.489 127.55C215.489 132.15 220.939 134.45 227.839 134.45Z" fill="white"/>
<path d="M496.918 91.5L486.918 85.7265V97.2735L496.918 91.5ZM377 91.5V92.5H487.918V91.5V90.5H377V91.5Z" fill="white"/>
<path d="M655.268 146C654.768 144.1 654.418 142 654.218 139.7C654.118 137.4 654.068 134.6 654.068 131.3H653.318V94.85C653.318 89.95 652.068 86.3 649.568 83.9C647.168 81.4 643.318 80.15 638.018 80.15C632.918 80.15 628.818 81.15 625.718 83.15C622.718 85.15 620.968 88 620.468 91.7H605.618C606.318 84.5 609.568 78.75 615.368 74.45C621.168 70.15 628.918 68 638.618 68C648.618 68 656.118 70.35 661.118 75.05C666.118 79.65 668.618 86.45 668.618 95.45V131.3C668.618 133.6 668.768 135.95 669.068 138.35C669.368 140.75 669.818 143.3 670.418 146H655.268ZM628.868 147.5C621.068 147.5 614.868 145.6 610.268 141.8C605.668 137.9 603.368 132.65 603.368 126.05C603.368 119.25 605.768 113.9 610.568 110C615.468 106 622.468 103.3 631.568 101.9L656.768 97.85V108.8L633.968 112.4C628.868 113.2 625.018 114.55 622.418 116.45C619.918 118.35 618.668 121.1 618.668 124.7C618.668 128.2 619.818 130.85 622.118 132.65C624.518 134.35 627.968 135.2 632.468 135.2C638.468 135.2 643.418 133.75 647.318 130.85C651.318 127.95 653.318 124.3 653.318 119.9L655.268 131C653.468 136.3 650.268 140.4 645.668 143.3C641.068 146.1 635.468 147.5 628.868 147.5ZM685.62 146V60.65C685.62 52.85 687.82 46.9 692.22 42.8C696.62 38.6 703.22 36.5 712.02 36.5C714.02 36.5 715.67 36.6 716.97 36.8C718.27 37 719.42 37.3 720.42 37.7V49.7C719.72 49.5 718.77 49.3 717.57 49.1C716.47 48.9 715.22 48.8 713.82 48.8C709.42 48.8 706.22 49.9 704.22 52.1C702.22 54.2 701.22 57.2 701.22 61.1V146H685.62ZM670.92 81.95V69.5H718.77V81.95H670.92ZM766.865 147.5C756.865 147.5 748.915 145.3 743.015 140.9C737.115 136.5 733.765 130.3 732.965 122.3H747.365C748.065 126.7 750.065 130.1 753.365 132.5C756.765 134.8 761.365 135.95 767.165 135.95C772.265 135.95 776.165 135.05 778.865 133.25C781.565 131.45 782.915 128.9 782.915 125.6C782.915 123.2 782.115 121.2 780.515 119.6C779.015 117.9 776.015 116.5 771.515 115.4L759.215 112.55C751.515 110.65 745.765 107.85 741.965 104.15C738.265 100.35 736.415 95.7 736.415 90.2C736.415 83.3 738.965 77.9 744.065 74C749.265 70 756.365 68 765.365 68C774.265 68 781.415 70 786.815 74C792.315 78 795.415 83.6 796.115 90.8H781.715C781.115 87.2 779.365 84.45 776.465 82.55C773.665 80.55 769.815 79.55 764.915 79.55C760.315 79.55 756.765 80.4 754.265 82.1C751.865 83.7 750.665 85.95 750.665 88.85C750.665 91.25 751.565 93.25 753.365 94.85C755.265 96.45 758.365 97.8 762.665 98.9L775.265 102.05C782.565 103.85 788.065 106.8 791.765 110.9C795.465 114.9 797.315 119.75 797.315 125.45C797.315 132.35 794.615 137.75 789.215 141.65C783.915 145.55 776.465 147.5 766.865 147.5ZM862.258 146V128.45L863.758 128.9C862.158 134.6 858.858 139.15 853.858 142.55C848.858 145.85 842.858 147.5 835.858 147.5C828.958 147.5 822.908 145.85 817.708 142.55C812.608 139.25 808.608 134.65 805.708 128.75C802.908 122.85 801.508 115.95 801.508 108.05C801.508 100.05 802.958 93.05 805.858 87.05C808.758 81.05 812.808 76.4 818.008 73.1C823.208 69.8 829.308 68.15 836.308 68.15C843.608 68.15 849.608 69.9 854.308 73.4C859.108 76.8 862.258 81.6 863.758 87.8L861.658 88.1V38H877.108V146H862.258ZM839.758 134.45C846.658 134.45 852.108 132.1 856.108 127.4C860.108 122.6 862.108 116 862.108 107.6C862.108 99.4 860.058 92.95 855.958 88.25C851.958 83.45 846.508 81.05 839.608 81.05C832.808 81.05 827.408 83.45 823.408 88.25C819.508 92.95 817.558 99.55 817.558 108.05C817.558 116.35 819.508 122.85 823.408 127.55C827.408 132.15 832.858 134.45 839.758 134.45Z" fill="white"/>
</svg>
