<svg width="1024" height="183" viewBox="0 0 1024 183" fill="none" xmlns="http://www.w3.org/2000/svg">
<path d="M117.491 147.5C109.791 147.5 102.991 145.8 97.0908 142.4C91.2908 139 86.7408 134.3 83.4408 128.3C80.1408 122.3 78.4908 115.4 78.4908 107.6C78.4908 99.7 80.0908 92.8 83.2908 86.9C86.5908 80.9 91.1908 76.25 97.0908 72.95C102.991 69.65 109.741 68 117.341 68C124.741 68 131.141 69.6 136.541 72.8C142.041 75.9 146.241 80.25 149.141 85.85C152.141 91.45 153.641 98.1 153.641 105.8C153.641 107 153.591 108.15 153.491 109.25C153.491 110.25 153.391 111.3 153.191 112.4H88.9908V100.7H142.241L138.341 105.35C138.341 97.15 136.491 90.9 132.791 86.6C129.091 82.3 123.941 80.15 117.341 80.15C110.241 80.15 104.591 82.6 100.391 87.5C96.2908 92.3 94.2408 99 94.2408 107.6C94.2408 116.3 96.2908 123.1 100.391 128C104.591 132.9 110.391 135.35 117.791 135.35C122.291 135.35 126.191 134.45 129.491 132.65C132.791 130.75 135.241 128 136.841 124.4H151.541C149.041 131.6 144.791 137.25 138.791 141.35C132.891 145.45 125.791 147.5 117.491 147.5ZM162.098 146V36.05H177.698V146H162.098ZM211.748 146L174.098 106.25L210.548 69.5H230.198L188.798 109.7L189.548 102.65L231.698 146H211.748ZM274.937 146V117.5L275.537 114.5V52.85L281.237 54.5L236.237 115.4L230.087 109.55H304.187V122.6H221.687V110.45L275.537 38H291.287V146H274.937ZM317.75 146V60.65C317.75 52.85 319.95 46.9 324.35 42.8C328.75 38.6 335.35 36.5 344.15 36.5C346.15 36.5 347.8 36.6 349.1 36.8C350.4 37 351.55 37.3 352.55 37.7V49.7C351.85 49.5 350.9 49.3 349.7 49.1C348.6 48.9 347.35 48.8 345.95 48.8C341.55 48.8 338.35 49.9 336.35 52.1C334.35 54.2 333.35 57.2 333.35 61.1V146H317.75ZM303.05 81.95V69.5H350.9V81.95H303.05Z" fill="white"/>
<path d="M567.459 91.5L557.459 85.7265V97.2735L567.459 91.5ZM447.541 91.5V92.5H558.459V91.5V90.5H447.541V91.5Z" fill="white"/>
<path d="M711.409 147.5C703.709 147.5 696.909 145.8 691.009 142.4C685.209 139 680.659 134.3 677.359 128.3C674.059 122.3 672.409 115.4 672.409 107.6C672.409 99.7 674.009 92.8 677.209 86.9C680.509 80.9 685.109 76.25 691.009 72.95C696.909 69.65 703.659 68 711.259 68C718.659 68 725.059 69.6 730.459 72.8C735.959 75.9 740.159 80.25 743.059 85.85C746.059 91.45 747.559 98.1 747.559 105.8C747.559 107 747.509 108.15 747.409 109.25C747.409 110.25 747.309 111.3 747.109 112.4H682.909V100.7H736.159L732.259 105.35C732.259 97.15 730.409 90.9 726.709 86.6C723.009 82.3 717.859 80.15 711.259 80.15C704.159 80.15 698.509 82.6 694.309 87.5C690.209 92.3 688.159 99 688.159 107.6C688.159 116.3 690.209 123.1 694.309 128C698.509 132.9 704.309 135.35 711.709 135.35C716.209 135.35 720.109 134.45 723.409 132.65C726.709 130.75 729.159 128 730.759 124.4H745.459C742.959 131.6 738.709 137.25 732.709 141.35C726.809 145.45 719.709 147.5 711.409 147.5ZM763.516 146V36.05H779.116V146H763.516ZM813.166 146L775.516 106.25L811.966 69.5H831.616L790.216 109.7L790.966 102.65L833.116 146H813.166ZM883.951 146V117.5L884.851 114.5V52.85L892.351 56.15L847.951 115.7L839.401 108.65H915.601V124.1H831.001V109.25L884.551 38H903.901V146H883.951ZM930.636 63.95V71H942.486V72.2H930.636V146H920.136V72.2H916.986V71H920.136V63.95C920.136 53.05 922.486 45.3 927.186 40.7C931.886 36 939.486 33.6 949.986 33.5V34.7C943.086 34.8 938.136 37.15 935.136 41.75C932.136 46.25 930.636 53.65 930.636 63.95Z" fill="white"/>
</svg>
