<svg width="332" height="335" viewBox="0 0 332 335" fill="none" xmlns="http://www.w3.org/2000/svg">
<path d="M58.35 298C57.85 296.1 57.5 294 57.3 291.7C57.2 289.4 57.15 286.6 57.15 283.3H56.4V246.85C56.4 241.95 55.15 238.3 52.65 235.9C50.25 233.4 46.4 232.15 41.1 232.15C36 232.15 31.9 233.15 28.8 235.15C25.8 237.15 24.05 240 23.55 243.7H8.7C9.4 236.5 12.65 230.75 18.45 226.45C24.25 222.15 32 220 41.7 220C51.7 220 59.2 222.35 64.2 227.05C69.2 231.65 71.7 238.45 71.7 247.45V283.3C71.7 285.6 71.85 287.95 72.15 290.35C72.45 292.75 72.9 295.3 73.5 298H58.35ZM31.95 299.5C24.15 299.5 17.95 297.6 13.35 293.8C8.75 289.9 6.45 284.65 6.45 278.05C6.45 271.25 8.85 265.9 13.65 262C18.55 258 25.55 255.3 34.65 253.9L59.85 249.85V260.8L37.05 264.4C31.95 265.2 28.1 266.55 25.5 268.45C23 270.35 21.75 273.1 21.75 276.7C21.75 280.2 22.9 282.85 25.2 284.65C27.6 286.35 31.05 287.2 35.55 287.2C41.55 287.2 46.5 285.75 50.4 282.85C54.4 279.95 56.4 276.3 56.4 271.9L58.35 283C56.55 288.3 53.35 292.4 48.75 295.3C44.15 298.1 38.55 299.5 31.95 299.5Z" fill="white"/>
<path d="M99.1 298V212.65C99.1 204.85 101.3 198.9 105.7 194.8C110.1 190.6 116.7 188.5 125.5 188.5C127.5 188.5 129.15 188.6 130.45 188.8C131.75 189 132.9 189.3 133.9 189.7V201.7C133.2 201.5 132.25 201.3 131.05 201.1C129.95 200.9 128.7 200.8 127.3 200.8C122.9 200.8 119.7 201.9 117.7 204.1C115.7 206.2 114.7 209.2 114.7 213.1V298H99.1ZM84.4 233.95V221.5H132.25V233.95H84.4Z" fill="white"/>
<path d="M137 243.5H167" stroke="#FFC400" stroke-width="5"/>
<path d="M205.55 299.5C195.55 299.5 187.6 297.3 181.7 292.9C175.8 288.5 172.45 282.3 171.65 274.3H186.05C186.75 278.7 188.75 282.1 192.05 284.5C195.45 286.8 200.05 287.95 205.85 287.95C210.95 287.95 214.85 287.05 217.55 285.25C220.25 283.45 221.6 280.9 221.6 277.6C221.6 275.2 220.8 273.2 219.2 271.6C217.7 269.9 214.7 268.5 210.2 267.4L197.9 264.55C190.2 262.65 184.45 259.85 180.65 256.15C176.95 252.35 175.1 247.7 175.1 242.2C175.1 235.3 177.65 229.9 182.75 226C187.95 222 195.05 220 204.05 220C212.95 220 220.1 222 225.5 226C231 230 234.1 235.6 234.8 242.8H220.4C219.8 239.2 218.05 236.45 215.15 234.55C212.35 232.55 208.5 231.55 203.6 231.55C199 231.55 195.45 232.4 192.95 234.1C190.55 235.7 189.35 237.95 189.35 240.85C189.35 243.25 190.25 245.25 192.05 246.85C193.95 248.45 197.05 249.8 201.35 250.9L213.95 254.05C221.25 255.85 226.75 258.8 230.45 262.9C234.15 266.9 236 271.75 236 277.45C236 284.35 233.3 289.75 227.9 293.65C222.6 297.55 215.15 299.5 205.55 299.5Z" fill="white"/>
<path d="M306.15 298V280.45L307.65 280.9C306.05 286.6 302.75 291.15 297.75 294.55C292.75 297.85 286.75 299.5 279.75 299.5C272.85 299.5 266.8 297.85 261.6 294.55C256.5 291.25 252.5 286.65 249.6 280.75C246.8 274.85 245.4 267.95 245.4 260.05C245.4 252.05 246.85 245.05 249.75 239.05C252.65 233.05 256.7 228.4 261.9 225.1C267.1 221.8 273.2 220.15 280.2 220.15C287.5 220.15 293.5 221.9 298.2 225.4C303 228.8 306.15 233.6 307.65 239.8L305.55 240.1V190H321V298H306.15ZM283.65 286.45C290.55 286.45 296 284.1 300 279.4C304 274.6 306 268 306 259.6C306 251.4 303.95 244.95 299.85 240.25C295.85 235.45 290.4 233.05 283.5 233.05C276.7 233.05 271.3 235.45 267.3 240.25C263.4 244.95 261.45 251.55 261.45 260.05C261.45 268.35 263.4 274.85 267.3 279.55C271.3 284.15 276.75 286.45 283.65 286.45Z" fill="white"/>
<path d="M101.133 29V7.01H104.253V29H101.133ZM111.063 29L103.533 21.05L110.823 13.7H114.753L106.473 21.74L106.623 20.33L115.053 29H111.063ZM123.144 29.3C121.604 29.3 120.244 28.96 119.064 28.28C117.904 27.6 116.994 26.66 116.334 25.46C115.674 24.26 115.344 22.88 115.344 21.32C115.344 19.74 115.664 18.36 116.304 17.18C116.964 15.98 117.884 15.05 119.064 14.39C120.244 13.73 121.594 13.4 123.114 13.4C124.594 13.4 125.874 13.72 126.954 14.36C128.054 14.98 128.894 15.85 129.474 16.97C130.074 18.09 130.374 19.42 130.374 20.96C130.374 21.2 130.364 21.43 130.344 21.65C130.344 21.85 130.324 22.06 130.284 22.28H117.444V19.94H128.094L127.314 20.87C127.314 19.23 126.944 17.98 126.204 17.12C125.464 16.26 124.434 15.83 123.114 15.83C121.694 15.83 120.564 16.32 119.724 17.3C118.904 18.26 118.494 19.6 118.494 21.32C118.494 23.06 118.904 24.42 119.724 25.4C120.564 26.38 121.724 26.87 123.204 26.87C124.104 26.87 124.884 26.69 125.544 26.33C126.204 25.95 126.694 25.4 127.014 24.68H129.954C129.454 26.12 128.604 27.25 127.404 28.07C126.224 28.89 124.804 29.3 123.144 29.3ZM133.565 29V13.7H136.535V17.51H136.685V29H133.565ZM136.685 21.02L136.295 17.39C136.655 16.09 137.275 15.1 138.155 14.42C139.035 13.74 140.085 13.4 141.305 13.4C141.765 13.4 142.085 13.44 142.265 13.52V16.46C142.165 16.42 142.025 16.4 141.845 16.4C141.665 16.38 141.445 16.37 141.185 16.37C139.685 16.37 138.555 16.76 137.795 17.54C137.055 18.32 136.685 19.48 136.685 21.02ZM145.049 29V13.7H148.019V17.3H148.169V29H145.049ZM155.909 29V19.16C155.909 18.1 155.639 17.31 155.099 16.79C154.579 16.27 153.799 16.01 152.759 16.01C151.859 16.01 151.059 16.21 150.359 16.61C149.679 17.01 149.139 17.56 148.739 18.26C148.359 18.96 148.169 19.79 148.169 20.75L147.779 17.09C148.279 15.95 149.049 15.05 150.089 14.39C151.129 13.73 152.339 13.4 153.719 13.4C155.359 13.4 156.649 13.86 157.589 14.78C158.529 15.7 158.999 16.92 158.999 18.44V29H155.909ZM163.184 29V13.7H166.304V29H163.184ZM163.034 10.7V7.19H166.484V10.7H163.034ZM170.684 29V13.7H173.654V17.3H173.804V29H170.684ZM181.544 29V19.16C181.544 18.1 181.274 17.31 180.734 16.79C180.214 16.27 179.434 16.01 178.394 16.01C177.494 16.01 176.694 16.21 175.994 16.61C175.314 17.01 174.774 17.56 174.374 18.26C173.994 18.96 173.804 19.79 173.804 20.75L173.414 17.09C173.914 15.95 174.684 15.05 175.724 14.39C176.764 13.73 177.974 13.4 179.354 13.4C180.994 13.4 182.284 13.86 183.224 14.78C184.164 15.7 184.634 16.92 184.634 18.44V29H181.544ZM195.268 35.45C193.348 35.45 191.758 35.01 190.498 34.13C189.258 33.27 188.508 32.12 188.248 30.68H191.188C191.388 31.34 191.828 31.86 192.508 32.24C193.208 32.62 194.138 32.81 195.298 32.81C196.798 32.81 197.918 32.44 198.658 31.7C199.398 30.96 199.768 29.86 199.768 28.4V25.1L200.038 25.16C199.738 26.32 199.088 27.24 198.088 27.92C197.088 28.58 195.888 28.91 194.488 28.91C193.148 28.91 191.968 28.59 190.948 27.95C189.928 27.31 189.138 26.42 188.578 25.28C188.018 24.12 187.738 22.77 187.738 21.23C187.738 19.67 188.028 18.3 188.608 17.12C189.188 15.94 189.998 15.03 191.038 14.39C192.098 13.75 193.328 13.43 194.728 13.43C196.168 13.43 197.358 13.78 198.298 14.48C199.258 15.16 199.868 16.13 200.128 17.39L199.888 17.42V13.7H202.858V28.37C202.858 30.57 202.178 32.3 200.818 33.56C199.478 34.82 197.628 35.45 195.268 35.45ZM195.418 26.39C196.758 26.39 197.828 25.92 198.628 24.98C199.448 24.04 199.858 22.75 199.858 21.11C199.858 19.51 199.448 18.25 198.628 17.33C197.828 16.41 196.748 15.95 195.388 15.95C194.028 15.95 192.948 16.42 192.148 17.36C191.348 18.28 190.948 19.56 190.948 21.2C190.948 22.8 191.348 24.07 192.148 25.01C192.968 25.93 194.058 26.39 195.418 26.39Z" fill="white"/>
<line x1="152.5" y1="57" x2="152.5" y2="210" stroke="white"/>
</svg>
