<svg width="488" height="378" viewBox="0 0 488 378" fill="none" xmlns="http://www.w3.org/2000/svg">
<path d="M43.95 342.5C36.25 342.5 29.45 340.8 23.55 337.4C17.75 334 13.2 329.3 9.9 323.3C6.6 317.3 4.95 310.4 4.95 302.6C4.95 294.7 6.55 287.8 9.75 281.9C13.05 275.9 17.65 271.25 23.55 267.95C29.45 264.65 36.2 263 43.8 263C51.2 263 57.6 264.6 63 267.8C68.5 270.9 72.7 275.25 75.6 280.85C78.6 286.45 80.1 293.1 80.1 300.8C80.1 302 80.05 303.15 79.95 304.25C79.95 305.25 79.85 306.3 79.65 307.4H15.45V295.7H68.7L64.8 300.35C64.8 292.15 62.95 285.9 59.25 281.6C55.55 277.3 50.4 275.15 43.8 275.15C36.7 275.15 31.05 277.6 26.85 282.5C22.75 287.3 20.7 294 20.7 302.6C20.7 311.3 22.75 318.1 26.85 323C31.05 327.9 36.85 330.35 44.25 330.35C48.75 330.35 52.65 329.45 55.95 327.65C59.25 325.75 61.7 323 63.3 319.4H78C75.5 326.6 71.25 332.25 65.25 336.35C59.35 340.45 52.25 342.5 43.95 342.5Z" fill="white"/>
<path d="M86 286.75L110.5 286.25" stroke="#FFC400" stroke-width="5"/>
<path d="M121.45 341V231.05H137.05V341H121.45ZM171.1 341L133.45 301.25L169.9 264.5H189.55L148.15 304.7L148.9 297.65L191.05 341H171.1Z" fill="white"/>
<path d="M249.5 341V312.5L250.4 309.5V247.85L257.9 251.15L213.5 310.7L204.95 303.65H281.15V319.1H196.55V304.25L250.1 233H269.45V341H249.5Z" fill="#E7569C"/>
<path d="M304.4 254.95V262H316.25V263.2H304.4V337H293.9V263.2H290.75V262H293.9V254.95C293.9 244.05 296.25 236.3 300.95 231.7C305.65 227 313.25 224.6 323.75 224.5V225.7C316.85 225.8 311.9 228.15 308.9 232.75C305.9 237.25 304.4 244.65 304.4 254.95Z" fill="#199700"/>
<path d="M44.3834 67V45.01H47.5034V67H44.3834ZM54.3134 67L46.7834 59.05L54.0734 51.7H58.0034L49.7234 59.74L49.8734 58.33L58.3034 67H54.3134ZM66.3935 67.3C64.8535 67.3 63.4935 66.96 62.3135 66.28C61.1535 65.6 60.2435 64.66 59.5835 63.46C58.9235 62.26 58.5935 60.88 58.5935 59.32C58.5935 57.74 58.9135 56.36 59.5535 55.18C60.2135 53.98 61.1335 53.05 62.3135 52.39C63.4935 51.73 64.8435 51.4 66.3635 51.4C67.8435 51.4 69.1235 51.72 70.2035 52.36C71.3035 52.98 72.1435 53.85 72.7235 54.97C73.3235 56.09 73.6235 57.42 73.6235 58.96C73.6235 59.2 73.6135 59.43 73.5935 59.65C73.5935 59.85 73.5735 60.06 73.5335 60.28H60.6935V57.94H71.3435L70.5635 58.87C70.5635 57.23 70.1935 55.98 69.4535 55.12C68.7135 54.26 67.6835 53.83 66.3635 53.83C64.9435 53.83 63.8135 54.32 62.9735 55.3C62.1535 56.26 61.7435 57.6 61.7435 59.32C61.7435 61.06 62.1535 62.42 62.9735 63.4C63.8135 64.38 64.9735 64.87 66.4535 64.87C67.3535 64.87 68.1335 64.69 68.7935 64.33C69.4535 63.95 69.9435 63.4 70.2635 62.68H73.2035C72.7035 64.12 71.8535 65.25 70.6535 66.07C69.4735 66.89 68.0535 67.3 66.3935 67.3ZM76.815 67V51.7H79.785V55.51H79.935V67H76.815ZM79.935 59.02L79.545 55.39C79.905 54.09 80.525 53.1 81.405 52.42C82.285 51.74 83.335 51.4 84.555 51.4C85.015 51.4 85.335 51.44 85.515 51.52V54.46C85.415 54.42 85.275 54.4 85.095 54.4C84.915 54.38 84.695 54.37 84.435 54.37C82.935 54.37 81.805 54.76 81.045 55.54C80.305 56.32 79.935 57.48 79.935 59.02ZM88.2994 67V51.7H91.2694V55.3H91.4194V67H88.2994ZM99.1594 67V57.16C99.1594 56.1 98.8894 55.31 98.3494 54.79C97.8294 54.27 97.0494 54.01 96.0094 54.01C95.1094 54.01 94.3094 54.21 93.6094 54.61C92.9294 55.01 92.3894 55.56 91.9894 56.26C91.6094 56.96 91.4194 57.79 91.4194 58.75L91.0294 55.09C91.5294 53.95 92.2994 53.05 93.3394 52.39C94.3794 51.73 95.5894 51.4 96.9694 51.4C98.6094 51.4 99.8994 51.86 100.839 52.78C101.779 53.7 102.249 54.92 102.249 56.44V67H99.1594ZM106.434 67V51.7H109.554V67H106.434ZM106.284 48.7V45.19H109.734V48.7H106.284ZM113.934 67V51.7H116.904V55.3H117.054V67H113.934ZM124.794 67V57.16C124.794 56.1 124.524 55.31 123.984 54.79C123.464 54.27 122.684 54.01 121.644 54.01C120.744 54.01 119.944 54.21 119.244 54.61C118.564 55.01 118.024 55.56 117.624 56.26C117.244 56.96 117.054 57.79 117.054 58.75L116.664 55.09C117.164 53.95 117.934 53.05 118.974 52.39C120.014 51.73 121.224 51.4 122.604 51.4C124.244 51.4 125.534 51.86 126.474 52.78C127.414 53.7 127.884 54.92 127.884 56.44V67H124.794ZM138.518 73.45C136.598 73.45 135.008 73.01 133.748 72.13C132.508 71.27 131.758 70.12 131.498 68.68H134.438C134.638 69.34 135.078 69.86 135.758 70.24C136.458 70.62 137.388 70.81 138.548 70.81C140.048 70.81 141.168 70.44 141.908 69.7C142.648 68.96 143.018 67.86 143.018 66.4V63.1L143.288 63.16C142.988 64.32 142.338 65.24 141.338 65.92C140.338 66.58 139.138 66.91 137.738 66.91C136.398 66.91 135.218 66.59 134.198 65.95C133.178 65.31 132.388 64.42 131.828 63.28C131.268 62.12 130.988 60.77 130.988 59.23C130.988 57.67 131.278 56.3 131.858 55.12C132.438 53.94 133.248 53.03 134.288 52.39C135.348 51.75 136.578 51.43 137.978 51.43C139.418 51.43 140.608 51.78 141.548 52.48C142.508 53.16 143.118 54.13 143.378 55.39L143.138 55.42V51.7H146.108V66.37C146.108 68.57 145.428 70.3 144.068 71.56C142.728 72.82 140.878 73.45 138.518 73.45ZM138.668 64.39C140.008 64.39 141.078 63.92 141.878 62.98C142.698 62.04 143.108 60.75 143.108 59.11C143.108 57.51 142.698 56.25 141.878 55.33C141.078 54.41 139.998 53.95 138.638 53.95C137.278 53.95 136.198 54.42 135.398 55.36C134.598 56.28 134.198 57.56 134.198 59.2C134.198 60.8 134.598 62.07 135.398 63.01C136.218 63.93 137.308 64.39 138.668 64.39Z" fill="white"/>
<line x1="95.75" y1="95" x2="95.75" y2="248" stroke="white"/>
<path d="M211.88 29L207.2 13.7H210.41L213.59 26H213.14L217.01 13.7H219.71L223.58 26H223.16L226.31 13.7H229.37L224.69 29H221.96L218.09 16.91H218.54L214.61 29H211.88ZM238.504 29.3C236.964 29.3 235.604 28.96 234.424 28.28C233.264 27.6 232.354 26.66 231.694 25.46C231.034 24.26 230.704 22.88 230.704 21.32C230.704 19.74 231.024 18.36 231.664 17.18C232.324 15.98 233.244 15.05 234.424 14.39C235.604 13.73 236.954 13.4 238.474 13.4C239.954 13.4 241.234 13.72 242.314 14.36C243.414 14.98 244.254 15.85 244.834 16.97C245.434 18.09 245.734 19.42 245.734 20.96C245.734 21.2 245.724 21.43 245.704 21.65C245.704 21.85 245.684 22.06 245.644 22.28H232.804V19.94H243.454L242.674 20.87C242.674 19.23 242.304 17.98 241.564 17.12C240.824 16.26 239.794 15.83 238.474 15.83C237.054 15.83 235.924 16.32 235.084 17.3C234.264 18.26 233.854 19.6 233.854 21.32C233.854 23.06 234.264 24.42 235.084 25.4C235.924 26.38 237.084 26.87 238.564 26.87C239.464 26.87 240.244 26.69 240.904 26.33C241.564 25.95 242.054 25.4 242.374 24.68H245.314C244.814 26.12 243.964 27.25 242.764 28.07C241.584 28.89 240.164 29.3 238.504 29.3ZM248.896 29V13.7H252.016V29H248.896ZM248.746 10.7V7.19H252.196V10.7H248.746ZM262.728 35.45C260.808 35.45 259.218 35.01 257.958 34.13C256.718 33.27 255.968 32.12 255.708 30.68H258.648C258.848 31.34 259.288 31.86 259.968 32.24C260.668 32.62 261.598 32.81 262.758 32.81C264.258 32.81 265.378 32.44 266.118 31.7C266.858 30.96 267.228 29.86 267.228 28.4V25.1L267.498 25.16C267.198 26.32 266.548 27.24 265.548 27.92C264.548 28.58 263.348 28.91 261.948 28.91C260.608 28.91 259.428 28.59 258.408 27.95C257.388 27.31 256.598 26.42 256.038 25.28C255.478 24.12 255.198 22.77 255.198 21.23C255.198 19.67 255.488 18.3 256.068 17.12C256.648 15.94 257.458 15.03 258.498 14.39C259.558 13.75 260.788 13.43 262.188 13.43C263.628 13.43 264.818 13.78 265.758 14.48C266.718 15.16 267.328 16.13 267.588 17.39L267.348 17.42V13.7H270.318V28.37C270.318 30.57 269.638 32.3 268.278 33.56C266.938 34.82 265.088 35.45 262.728 35.45ZM262.878 26.39C264.218 26.39 265.288 25.92 266.088 24.98C266.908 24.04 267.318 22.75 267.318 21.11C267.318 19.51 266.908 18.25 266.088 17.33C265.288 16.41 264.208 15.95 262.848 15.95C261.488 15.95 260.408 16.42 259.608 17.36C258.808 18.28 258.408 19.56 258.408 21.2C258.408 22.8 258.808 24.07 259.608 25.01C260.428 25.93 261.518 26.39 262.878 26.39ZM274.707 29V7.4H277.827V29H274.707ZM285.567 29V19.16C285.567 18.1 285.297 17.31 284.757 16.79C284.237 16.27 283.457 16.01 282.417 16.01C281.517 16.01 280.717 16.21 280.017 16.61C279.337 17.01 278.797 17.56 278.397 18.26C278.017 18.96 277.827 19.79 277.827 20.75L277.437 17.09C277.937 15.95 278.707 15.05 279.747 14.39C280.787 13.73 281.997 13.4 283.377 13.4C285.017 13.4 286.307 13.86 287.247 14.78C288.187 15.7 288.657 16.92 288.657 18.44V29H285.567ZM298.912 29.3C297.132 29.3 295.822 28.89 294.982 28.07C294.162 27.23 293.752 26 293.752 24.38V10.19L296.842 9.02V24.41C296.842 25.21 297.052 25.8 297.472 26.18C297.892 26.56 298.572 26.75 299.512 26.75C299.872 26.75 300.192 26.72 300.472 26.66C300.752 26.6 300.992 26.53 301.192 26.45V28.97C300.972 29.07 300.662 29.15 300.262 29.21C299.862 29.27 299.412 29.3 298.912 29.3ZM290.692 16.19V13.7H301.192V16.19H290.692Z" fill="white"/>
<line x1="254.75" y1="57" x2="254.75" y2="210" stroke="white"/>
<line x1="334.75" y1="247" x2="409.75" y2="247" stroke="white"/>
<path d="M433.459 258V240.93C433.459 239.37 433.899 238.18 434.779 237.36C435.659 236.52 436.979 236.1 438.739 236.1C439.139 236.1 439.469 236.12 439.729 236.16C439.989 236.2 440.219 236.26 440.419 236.34V238.74C440.279 238.7 440.089 238.66 439.849 238.62C439.629 238.58 439.379 238.56 439.099 238.56C438.219 238.56 437.579 238.78 437.179 239.22C436.779 239.64 436.579 240.24 436.579 241.02V258H433.459ZM430.519 245.19V242.7H440.089V245.19H430.519ZM449.143 258.3C447.583 258.3 446.213 257.96 445.033 257.28C443.853 256.58 442.933 255.63 442.273 254.43C441.613 253.21 441.283 251.83 441.283 250.29C441.283 248.73 441.613 247.36 442.273 246.18C442.953 245 443.873 244.08 445.033 243.42C446.213 242.74 447.583 242.4 449.143 242.4C450.723 242.4 452.103 242.74 453.283 243.42C454.463 244.08 455.373 245 456.013 246.18C456.673 247.36 457.003 248.73 457.003 250.29C457.003 251.83 456.673 253.21 456.013 254.43C455.373 255.63 454.463 256.58 453.283 257.28C452.103 257.96 450.723 258.3 449.143 258.3ZM449.143 255.75C450.083 255.75 450.893 255.52 451.573 255.06C452.273 254.6 452.823 253.96 453.223 253.14C453.623 252.32 453.823 251.36 453.823 250.26C453.823 248.62 453.383 247.33 452.503 246.39C451.643 245.43 450.523 244.95 449.143 244.95C447.783 244.95 446.663 245.43 445.783 246.39C444.923 247.35 444.493 248.64 444.493 250.26C444.493 251.36 444.683 252.32 445.063 253.14C445.463 253.96 446.013 254.6 446.713 255.06C447.433 255.52 448.243 255.75 449.143 255.75ZM460.208 258V242.7H463.178V246.3H463.328V258H460.208ZM471.068 258V248.16C471.068 247.1 470.798 246.31 470.258 245.79C469.738 245.27 468.958 245.01 467.918 245.01C467.018 245.01 466.218 245.21 465.518 245.61C464.838 246.01 464.298 246.56 463.898 247.26C463.518 247.96 463.328 248.79 463.328 249.75L462.938 246.09C463.438 244.95 464.208 244.05 465.248 243.39C466.288 242.73 467.498 242.4 468.878 242.4C470.518 242.4 471.808 242.86 472.748 243.78C473.688 244.7 474.158 245.92 474.158 247.44V258H471.068ZM484.413 258.3C482.633 258.3 481.323 257.89 480.483 257.07C479.663 256.23 479.253 255 479.253 253.38V239.19L482.343 238.02V253.41C482.343 254.21 482.553 254.8 482.973 255.18C483.393 255.56 484.073 255.75 485.013 255.75C485.373 255.75 485.693 255.72 485.973 255.66C486.253 255.6 486.493 255.53 486.693 255.45V257.97C486.473 258.07 486.163 258.15 485.763 258.21C485.363 258.27 484.913 258.3 484.413 258.3ZM476.193 245.19V242.7H486.693V245.19H476.193Z" fill="white"/>
</svg>
